<?xml version="1.0" encoding="utf-8"?>
<!-- Generator: Adobe Illustrator 22.0.1, SVG Export Plug-In . SVG Version: 6.00 Build 0)  -->
<svg version="1.1" id="Camada_1" xmlns="http://www.w3.org/2000/svg" xmlns:xlink="http://www.w3.org/1999/xlink" x="0px" y="0px"
	 viewBox="0 0 514 556" style="enable-background:new 0 0 514 556;" xml:space="preserve">
<style type="text/css">
	.st0{fill:#FFFFFF;}
</style>
<g>
	<path class="st0" d="M302.1,348.8c-15.6-44.5-75.4-86.3-124.5-109.4c-37.2-17.5-77.9-46.6-88.3-77.2c-10.5-30.9,5.3-69.1,43.5-84.5
		c46.7-18.8,104.3,13.5,130.3,41.5c0.5,0.5,1.1,0.8,1.8,0.8l0,0c0.5,0,1-0.2,1.4-0.4l20.1-14.2c0.1-0.1,0.2-0.1,0.2-0.2L305,88.4
		c0.9-0.9,1.1-2.3,0.3-3.3L292.8,69c-18.6-24.4-51.1-46.1-86-55c-35.1-9-76.6-5.5-103.2,7.2C71.1,36.7,47,65.6,34.5,99.9
		c-11.6,31.9-9.7,62.7,0.8,93.6c9.1,26.7,29.2,49.9,54.5,68.6c34.5,25.5,75.1,41.1,110.5,65.6c17.4,12.1,33.6,22.5,41.6,42.9
		c7,17.7,7.8,37.9,1.5,55.9c-8.5,24.5-30.9,40.4-53,51.8c-18,9.2-45.2,9.7-72.8,1c-24.7-7.8-48.6-26.1-64.1-42.6
		c-0.9-1-2.5-1-3.5-0.1L7.7,478.8c-0.9,0.9-1,2.4-0.1,3.3c22.1,25.2,53.8,46.5,89.7,57.7c19.8,6.2,39.6,9.3,58.8,9.3
		c1.2,0,2.4,0,3.7,0c22.9-0.5,47.3-7,65.4-16.3c34.6-17.7,58.5-40.9,73.8-77C313.9,420.2,313.7,382.2,302.1,348.8z"/>
	<path class="st0" d="M499.1,99.9c-12.5-34.3-36.6-63.2-69.1-78.7C403.3,8.5,361.9,5.1,326.8,14c-14.3,3.6-28,9.4-40.8,16.7
		c-3.7,2.1-7.1,4.5-10.6,6.8c-26.4,16.7-43.9,45.8-48.8,51.5c-0.5,0.6-0.4,1.5,0.3,2c4,2.5,14.3,9.2,18.6,12.5
		c3.7,2.8,12.4,10.9,17.7,16c2.4,2.3,6.1,2.2,8.4-0.1c15.3-14.9,71-63.5,129.4-41.6c38.5,14.5,54,53.7,43.5,84.5
		c-10.5,30.6-51.1,59.7-88.3,77.2c-49.1,23.1-108.9,64.9-124.5,109.4c0,0,0,0,0,0c-0.7,1.9-0.3,4,0.9,5.6c5.3,7.1,20.9,28.2,36,48.6
		c16.5,22.4,32.4,44.1,33.2,45.9c11.1-30.5,11.4-62.4,3.2-91.5c-1-3.6,0-7.5,2.7-10.1c7.6-7.3,16.5-13.3,25.8-19.8
		c35.3-24.5,75.9-40.1,110.5-65.6c25.3-18.7,45.4-41.9,54.5-68.6C508.8,162.6,510.7,131.7,499.1,99.9z"/>
</g>
</svg>
